<svg width="20" height="21" viewBox="0 0 20 21" fill="none" xmlns="http://www.w3.org/2000/svg">
<g clip-path="url(#clip0_46_233)">
<rect width="19.5482" height="19.5482" transform="translate(0.433594 0.939941)" fill="white"/>
<path fill-rule="evenodd" clip-rule="evenodd" d="M10.1803 1.95801H11.864C12.9813 1.958 13.8573 1.958 14.5613 2.01552C15.2782 2.07409 15.8704 2.19534 16.4064 2.46847C17.2877 2.91749 18.0042 3.63396 18.4532 4.5152C18.7263 5.05125 18.8476 5.64349 18.9061 6.36037C18.9636 7.06439 18.9636 7.94033 18.9636 9.0576V12.529C18.9636 14.563 17.3147 16.2119 15.2807 16.2119H14.7906C14.5882 16.2119 14.4498 16.4163 14.5249 16.6043C15.0842 18.0025 13.4739 19.2666 12.2485 18.3913L10.7363 17.3111C10.3977 17.4314 10.0372 17.5043 9.66274 17.5223C9.57301 17.5266 9.46085 17.5266 9.28401 17.5266H9.26217L9.21542 17.5267C8.69567 17.53 8.18859 17.6944 7.76225 17.999L7.73185 18.0209L6.07793 19.2184C4.98785 20.0076 3.62821 18.8522 4.09819 17.6613C4.11184 17.6267 4.10718 17.5939 4.08839 17.5657C4.06983 17.5379 4.04614 17.5266 4.01867 17.5266H3.63746C1.97269 17.5266 0.637207 16.1609 0.637207 14.4938L0.637207 11.7521C0.637203 10.8754 0.637199 10.1807 0.682337 9.6207C0.728485 9.04818 0.82477 8.56329 1.04752 8.12015C1.40864 7.40175 1.98566 6.81613 2.69727 6.44861C2.84201 6.37386 2.9912 6.31307 3.14657 6.26347C3.20816 5.58845 3.33127 5.02533 3.59119 4.5152C4.04021 3.63396 4.75668 2.91749 5.63792 2.46847C6.17398 2.19534 6.76621 2.07409 7.4831 2.01552C8.18711 1.958 9.06307 1.958 10.1803 1.95801ZM4.39873 6.06142C4.91213 6.03049 5.51891 6.03052 6.24799 6.03055L7.6103 6.03055C8.47429 6.03054 9.16053 6.03054 9.714 6.07638C10.2806 6.1233 10.762 6.22137 11.202 6.44861C11.9136 6.81613 12.4906 7.40175 12.8518 8.12015C13.0745 8.56329 13.1708 9.04818 13.217 9.6207C13.2621 10.1807 13.2621 10.8754 13.2621 11.7521V13.5301C13.2621 13.692 13.2621 13.795 13.2579 13.8853C13.2062 14.9922 12.6908 15.9765 11.9014 16.6419L12.9586 17.3971C13.1911 17.5631 13.4967 17.3233 13.3906 17.058C12.9944 16.0675 13.7238 14.9901 14.7906 14.9901H15.2807C16.64 14.9901 17.7419 13.8882 17.7419 12.529V9.08495C17.7419 7.93446 17.7414 7.10832 17.6884 6.45986C17.636 5.81854 17.5353 5.40498 17.3646 5.06987C17.0327 4.41852 16.5031 3.88895 15.8518 3.55707C15.5167 3.38632 15.1031 3.28562 14.4618 3.23323C13.8133 3.18025 12.9872 3.17977 11.8367 3.17977H10.2077C9.05718 3.17977 8.23104 3.18025 7.58259 3.23323C6.94126 3.28562 6.5277 3.38632 6.19259 3.55707C5.54124 3.88895 5.01167 4.41852 4.67979 5.06987C4.54675 5.33097 4.45684 5.6381 4.39873 6.06142ZM6.31614 7.25231C5.09081 7.25231 4.3639 7.25473 3.83332 7.35077C3.59292 7.39428 3.41206 7.45453 3.25791 7.53414C2.7775 7.78226 2.38538 8.179 2.13913 8.66887C2.01665 8.91254 1.94031 9.2206 1.90015 9.71886C1.85943 10.224 1.85897 10.8695 1.85897 11.7786V14.4938C1.85897 15.5018 2.663 16.3048 3.63746 16.3048H4.01867C4.95561 16.3048 5.57158 17.256 5.23466 18.1098C5.22043 18.1458 5.22417 18.1651 5.22732 18.1757C5.23191 18.191 5.24347 18.2102 5.26376 18.2264C5.28407 18.2425 5.30286 18.2475 5.31346 18.2481C5.31866 18.2484 5.33323 18.2492 5.36143 18.2288L7.01535 17.0313L7.05213 17.0048C7.68248 16.5545 8.43459 16.3099 9.2075 16.3049L9.26217 16.3048C9.46787 16.3048 9.54784 16.3047 9.60418 16.3019C9.94404 16.2856 10.2654 16.2025 10.5568 16.0653C11.396 15.6703 11.9909 14.8251 12.0374 13.8283C12.0402 13.7703 12.0403 13.6981 12.0403 13.5116V11.7786C12.0403 10.8695 12.0399 10.224 11.9991 9.71886C11.959 9.2206 11.8826 8.91254 11.7602 8.66887C11.5139 8.179 11.1218 7.78226 10.6414 7.53414C10.4038 7.41143 10.1029 7.33453 9.61316 7.29397C9.11603 7.2528 8.48036 7.25231 7.58315 7.25231H6.31614Z" fill="#757575"/>
<path d="M5.32063 12.343C5.32063 12.7928 4.95596 13.1575 4.50612 13.1575C4.05628 13.1575 3.69161 12.7928 3.69161 12.343C3.69161 11.8931 4.05628 11.5285 4.50612 11.5285C4.95596 11.5285 5.32063 11.8931 5.32063 12.343Z" fill="#757575"/>
<path d="M7.76415 12.343C7.76415 12.7928 7.39949 13.1575 6.94965 13.1575C6.4998 13.1575 6.13514 12.7928 6.13514 12.343C6.13514 11.8931 6.4998 11.5285 6.94965 11.5285C7.39949 11.5285 7.76415 11.8931 7.76415 12.343Z" fill="#757575"/>
<path d="M10.2077 12.343C10.2077 12.7928 9.84301 13.1575 9.39317 13.1575C8.94333 13.1575 8.57866 12.7928 8.57866 12.343C8.57866 11.8931 8.94333 11.5285 9.39317 11.5285C9.84301 11.5285 10.2077 11.8931 10.2077 12.343Z" fill="#757575"/>
</g>
<defs>
<clipPath id="clip0_46_233">
<rect width="19.5482" height="19.5482" fill="white" transform="translate(0.433594 0.939941)"/>
</clipPath>
</defs>
</svg>
