<svg width="15" height="16" viewBox="0 0 15 16" fill="none" xmlns="http://www.w3.org/2000/svg">
<path fill-rule="evenodd" clip-rule="evenodd" d="M10.7976 0.87085C11.0994 0.87085 11.3444 1.09303 11.3444 1.36678L11.3447 1.9274C12.4093 1.99359 13.2934 2.3243 13.9191 2.89301C14.6022 3.51524 14.9617 4.40991 14.9581 5.48311V11.5157C14.9581 13.7189 13.4153 15.0877 10.9328 15.0877H4.76639C2.28392 15.0877 0.741211 13.6998 0.741211 11.4654V5.48179C0.741211 3.40362 2.117 2.06965 4.3608 1.92762L4.36125 1.36678C4.36125 1.09303 4.60622 0.87085 4.90805 0.87085C5.20988 0.87085 5.45485 1.09303 5.45485 1.36678L5.45463 1.91496H10.2504L10.2508 1.36678C10.2508 1.09303 10.4958 0.87085 10.7976 0.87085ZM13.8644 6.75859H1.83481V11.4654C1.83481 13.1622 2.87592 14.0958 4.76639 14.0958H10.9328C12.8233 14.0958 13.8644 13.1794 13.8644 11.5157L13.8644 6.75859ZM11.0948 10.9194C11.3967 10.9194 11.6416 11.1415 11.6416 11.4153C11.6416 11.689 11.3967 11.9112 11.0948 11.9112C10.793 11.9112 10.5451 11.689 10.5451 11.4153C10.5451 11.1415 10.7864 10.9194 11.0883 10.9194H11.0948ZM7.85961 10.9194C8.16144 10.9194 8.40641 11.1415 8.40641 11.4153C8.40641 11.689 8.16144 11.9112 7.85961 11.9112C7.55777 11.9112 7.30989 11.689 7.30989 11.4153C7.30989 11.1415 7.55121 10.9194 7.85304 10.9194H7.85961ZM4.61759 10.9194C4.91942 10.9194 5.16439 11.1415 5.16439 11.4153C5.16439 11.689 4.91942 11.9112 4.61759 11.9112C4.31575 11.9112 4.06714 11.689 4.06714 11.4153C4.06714 11.1415 4.30919 10.9194 4.61103 10.9194H4.61759ZM11.0948 8.34928C11.3967 8.34928 11.6416 8.57146 11.6416 8.84522C11.6416 9.11897 11.3967 9.34115 11.0948 9.34115C10.793 9.34115 10.5451 9.11897 10.5451 8.84522C10.5451 8.57146 10.7864 8.34928 11.0883 8.34928H11.0948ZM7.85961 8.34928C8.16144 8.34928 8.40641 8.57146 8.40641 8.84522C8.40641 9.11897 8.16144 9.34115 7.85961 9.34115C7.55777 9.34115 7.30989 9.11897 7.30989 8.84522C7.30989 8.57146 7.55121 8.34928 7.85304 8.34928H7.85961ZM4.61759 8.34928C4.91942 8.34928 5.16439 8.57146 5.16439 8.84522C5.16439 9.11897 4.91942 9.34115 4.61759 9.34115C4.31575 9.34115 4.06714 9.11897 4.06714 8.84522C4.06714 8.57146 4.30919 8.34928 4.61103 8.34928H4.61759ZM10.2504 2.90683H5.45463L5.45485 3.54295C5.45485 3.8167 5.20988 4.03888 4.90805 4.03888C4.60622 4.03888 4.36125 3.8167 4.36125 3.54295L4.36086 2.92184C2.72758 3.04628 1.83481 3.94423 1.83481 5.48179V5.76672H13.8644L13.8644 5.48179C13.8673 4.66515 13.6253 4.03035 13.1448 3.59393C12.7231 3.21028 12.1065 2.98115 11.345 2.92216L11.3444 3.54295C11.3444 3.8167 11.0994 4.03888 10.7976 4.03888C10.4958 4.03888 10.2508 3.8167 10.2508 3.54295L10.2504 2.90683Z" fill="black"/>
</svg>
