<svg width="18" height="18" viewBox="0 0 18 18" fill="none" xmlns="http://www.w3.org/2000/svg">
<path d="M10.9163 1.78434H10.2499V1.81758L10.2532 1.85065L10.9163 1.78434ZM10.9163 1.78433H11.5827V1.75109L11.5794 1.71802L10.9163 1.78433ZM11.0752 2.70729L10.4868 3.02006V3.02006L11.0752 2.70729ZM12.1198 3.13994L11.9248 2.50268L11.9248 2.50268L12.1198 3.13994ZM12.8849 2.59967L13.3069 3.11545L13.3326 3.0944L13.3561 3.0709L12.8849 2.59967ZM12.8849 2.59967L12.4629 2.08389L12.4371 2.10494L12.4136 2.12844L12.8849 2.59967ZM13.3094 2.2925L13.0374 1.68412L13.0374 1.68412L13.3094 2.2925ZM14.1136 2.33261L13.7824 2.91091L13.7824 2.91091L14.1136 2.33261ZM14.5054 2.68046L14.0342 3.15169L14.0342 3.15169L14.5054 2.68046ZM15.2199 3.39495L14.7487 3.86617L14.7589 3.87641L14.7696 3.8862L15.2199 3.39495ZM15.2199 3.39495L15.6912 2.92373L15.6809 2.91349L15.6702 2.9037L15.2199 3.39495ZM15.5678 3.78679L14.9895 4.11796L14.9895 4.11796L15.5678 3.78679ZM15.6079 4.591L14.9995 4.31901L14.9995 4.31902L15.6079 4.591ZM15.3007 5.01552L15.7988 5.45827L15.8079 5.44808L15.8165 5.43752L15.3007 5.01552ZM15.3007 5.01554L14.8026 4.57279L14.7936 4.58298L14.785 4.59354L15.3007 5.01554ZM14.7604 5.78079L15.3977 5.97566L15.3977 5.97565L14.7604 5.78079ZM15.193 6.82518L15.5058 6.23675L15.5058 6.23675L15.193 6.82518ZM16.1162 6.9842L16.0499 7.64731H16.0499L16.1162 6.9842ZM16.6335 7.06718L16.3956 7.6897L16.3956 7.6897L16.6335 7.06718ZM17.1738 7.66422L16.5307 7.83896L16.5307 7.83896L17.1738 7.66422ZM17.1738 9.72066L16.5307 9.54597L16.5307 9.54597L17.1738 9.72066ZM16.6334 10.3178L16.8713 10.9403L16.8713 10.9403L16.6334 10.3178ZM16.1163 10.4007L16.05 9.73763L16.1163 10.4007ZM15.1934 10.5597L14.8806 9.97124L14.8806 9.97124L15.1934 10.5597ZM14.7607 11.6042L14.1234 11.7992V11.7992L14.7607 11.6042ZM15.301 12.3693L14.7852 12.7913L14.8062 12.817L14.8297 12.8405L15.301 12.3693ZM15.301 12.3693L15.8167 11.9473L15.7957 11.9216L15.7722 11.8981L15.301 12.3693ZM15.6081 12.7938L16.2165 12.5218L16.2165 12.5218L15.6081 12.7938ZM15.568 13.5981L14.9897 13.2669L14.9897 13.2669L15.568 13.5981ZM15.2202 13.9899L15.6914 14.4611L15.6914 14.4611L15.2202 13.9899ZM15.2202 13.9899L15.6914 14.4611H15.6914L15.2202 13.9899ZM14.5057 14.7043L14.0345 14.2331L14.0345 14.2331L14.5057 14.7043ZM14.1138 15.0523L13.7826 14.4739V14.4739L14.1138 15.0523ZM13.3096 15.0924L13.0377 15.7008H13.0377L13.3096 15.0924ZM12.8851 14.7852L13.3071 14.2694L12.8851 14.7852ZM12.1197 14.2447L12.3145 13.6074L12.3145 13.6074L12.1197 14.2447ZM11.0754 14.6773L10.487 14.3644L11.0754 14.6773ZM10.9163 15.6007L10.2532 15.5344L10.2499 15.5675V15.6007H10.9163ZM10.9163 15.6008L11.5794 15.6671L11.5827 15.634V15.6008H10.9163ZM10.8333 16.1183L11.4558 16.3563L11.4558 16.3563L10.8333 16.1183ZM10.2364 16.6585L10.0615 16.0155H10.0615L10.2364 16.6585ZM8.17969 16.6585L8.0049 17.3016L8.17969 16.6585ZM7.58273 16.1183L6.96023 16.3562V16.3562L7.58273 16.1183ZM7.49972 15.6008L8.16283 15.5345V15.5345L7.49972 15.6008ZM7.34067 14.6775L7.92909 14.3646L7.34067 14.6775ZM6.2963 14.2449L6.49116 14.8822L6.49116 14.8822L6.2963 14.2449ZM5.53103 14.7852L5.10903 14.2695L5.10903 14.2695L5.53103 14.7852ZM5.10653 15.0924L5.37852 15.7008H5.37852L5.10653 15.0924ZM4.30231 15.0523L3.97114 15.6306L3.97114 15.6306L4.30231 15.0523ZM3.91048 14.7044L4.38171 14.2332H4.38171L3.91048 14.7044ZM3.19598 13.9899L2.70677 14.4424L2.71558 14.452L2.72475 14.4611L3.19598 13.9899ZM3.19597 13.9899L3.68518 13.5374L3.67637 13.5278L3.66719 13.5187L3.19597 13.9899ZM2.84814 13.5981L3.42644 13.2669L3.42644 13.2669L2.84814 13.5981ZM2.80803 12.7939L3.41641 13.0659L2.80803 12.7939ZM3.11515 12.3694L2.64392 11.8982L2.62042 11.9217L2.59937 11.9474L3.11515 12.3694ZM3.11516 12.3694L3.58638 12.8406L3.60989 12.8171L3.63093 12.7914L3.11516 12.3694ZM3.65547 11.6042L3.01819 11.4093L3.01819 11.4093L3.65547 11.6042ZM3.22286 10.5598L2.91004 11.1482L2.91004 11.1482L3.22286 10.5598ZM2.29971 10.4007L2.36602 9.73764L2.33294 9.73433H2.29971V10.4007ZM2.2997 10.4007L2.22294 11.0627L2.26119 11.0672H2.2997V10.4007ZM2.29967 10.4007L2.37643 9.73868L2.36598 9.73764L2.29967 10.4007ZM1.78234 10.3178L2.0202 9.69525H2.0202L1.78234 10.3178ZM1.24203 9.72073L1.88513 9.54599L1.88513 9.54599L1.24203 9.72073ZM1.21094 9.1977L1.87735 9.1977L1.21094 9.1977ZM1.21094 8.18735H1.87735H1.21094ZM1.24205 7.66415L0.598963 7.48935L0.598963 7.48935L1.24205 7.66415ZM1.78227 7.06721L1.54436 6.44471L1.54435 6.44471L1.78227 7.06721ZM2.29982 6.98419V6.31777H2.26659L2.23351 6.32108L2.29982 6.98419ZM2.29983 6.98419V7.65061H2.33307L2.36614 7.6473L2.29983 6.98419ZM3.22317 6.82514L3.53602 7.41356L3.53602 7.41356L3.22317 6.82514ZM3.65576 5.78077L4.29305 5.58592V5.58592L3.65576 5.78077ZM3.11539 5.01549L3.63117 4.59349L3.62418 4.58495L3.61692 4.57665L3.11539 5.01549ZM3.11539 5.01549L2.59961 5.43749L2.60659 5.44602L2.61386 5.45433L3.11539 5.01549ZM2.80823 4.59098L2.19985 4.86296L2.80823 4.59098ZM2.84835 3.78677L2.27004 3.4556L2.27004 3.4556L2.84835 3.78677ZM3.19622 3.39493L3.66744 3.86615L3.66744 3.86615L3.19622 3.39493ZM3.91074 2.6804L3.43951 2.20918L3.91074 2.6804ZM4.30248 2.33261L4.63369 2.91089L4.63369 2.91089L4.30248 2.33261ZM5.10679 2.2925L5.37882 1.68413V1.68413L5.10679 2.2925ZM5.53123 2.59961L5.95323 2.08383L5.95323 2.08383L5.53123 2.59961ZM6.29621 3.13981L6.10124 3.77707L6.29621 3.13981ZM7.34081 2.70712L7.92928 3.01987H7.92928L7.34081 2.70712ZM7.49974 1.7843L8.16285 1.85061L8.16616 1.81754V1.7843H7.49974ZM7.49974 1.7843L6.83663 1.71799L6.83333 1.75106V1.7843H7.49974ZM7.58268 1.26717L8.20522 1.50497L8.20522 1.50497L7.58268 1.26717ZM8.17984 0.726743L8.35451 1.36986L8.17984 0.726743ZM10.2362 0.726751L10.4109 0.0836404L10.4109 0.0836402L10.2362 0.726751ZM10.8333 1.26714L11.4559 1.02933L11.4559 1.02932L10.8333 1.26714ZM11.5827 1.78434V1.78433H10.2499V1.78434H11.5827ZM11.6637 2.39451C11.6766 2.41886 11.6629 2.40682 11.6426 2.27691C11.623 2.15222 11.6058 1.98201 11.5794 1.71803L10.2532 1.85065C10.278 2.09897 10.2991 2.31298 10.3258 2.48305C10.3516 2.64791 10.3917 2.84121 10.4868 3.02006L11.6637 2.39451ZM11.9248 2.50268C11.8231 2.53379 11.7136 2.48844 11.6637 2.39451L10.4868 3.02006C10.8362 3.67753 11.6027 3.99501 12.3147 3.77721L11.9248 2.50268ZM12.4629 2.08389C12.2575 2.25191 12.1249 2.36007 12.0229 2.43445C11.9167 2.51195 11.8985 2.51074 11.9248 2.50268L12.3147 3.77721C12.5084 3.71796 12.6735 3.60965 12.8083 3.51132C12.9474 3.40988 13.1137 3.2735 13.3069 3.11545L12.4629 2.08389ZM12.4136 2.12844L12.4136 2.12845L13.3561 3.0709L13.3561 3.07089L12.4136 2.12844ZM13.0374 1.68412C12.8278 1.77783 12.6411 1.93804 12.4629 2.08389L13.3069 3.11544C13.4171 3.02526 13.4821 2.97227 13.5328 2.93462C13.5801 2.89955 13.5896 2.89721 13.5814 2.90088L13.0374 1.68412ZM14.4448 1.75431C14.0138 1.50748 13.4908 1.4814 13.0374 1.68412L13.5814 2.90088C13.6462 2.87192 13.7209 2.87565 13.7824 2.91091L14.4448 1.75431ZM14.9767 2.20923C14.8138 2.04639 14.6441 1.86842 14.4448 1.75431L13.7824 2.91091C13.7746 2.90644 13.7839 2.90971 13.8274 2.9493C13.8741 2.9918 13.9335 3.05099 14.0342 3.15169L14.9767 2.20923ZM15.6911 2.92372L14.9767 2.20923L14.0342 3.15169L14.7487 3.86617L15.6911 2.92372ZM15.6702 2.9037L15.6702 2.9037L14.7696 3.8862L14.7696 3.8862L15.6702 2.9037ZM16.1461 3.45563C16.032 3.25636 15.854 3.08657 15.6912 2.92373L14.7487 3.86618C14.8494 3.96688 14.9086 4.02632 14.9511 4.07303C14.9907 4.11654 14.994 4.12577 14.9895 4.11796L16.1461 3.45563ZM16.2163 4.86298C16.419 4.40957 16.3929 3.88661 16.1461 3.45562L14.9895 4.11796C15.0248 4.17953 15.0285 4.25424 14.9995 4.31901L16.2163 4.86298ZM15.8165 5.43752C15.9624 5.25927 16.1226 5.07261 16.2163 4.86298L14.9995 4.31902C15.0032 4.3108 15.0009 4.32031 14.9658 4.36755C14.9281 4.41826 14.8751 4.4833 14.785 4.59352L15.8165 5.43752ZM15.7988 5.45828L15.7988 5.45827L14.8027 4.57278L14.8026 4.57279L15.7988 5.45828ZM15.3977 5.97565C15.3896 6.00203 15.3884 5.98381 15.4659 5.87753C15.5403 5.77552 15.6485 5.64292 15.8165 5.43753L14.785 4.59354C14.6269 4.78674 14.4905 4.95307 14.389 5.0922C14.2907 5.22706 14.1823 5.39217 14.1231 5.58592L15.3977 5.97565ZM15.5058 6.23675C15.4119 6.18683 15.3666 6.07736 15.3977 5.97566L14.1231 5.58592C13.9054 6.29782 14.2228 7.06414 14.8801 7.4136L15.5058 6.23675ZM16.1825 6.3211C15.9184 6.29469 15.7482 6.27742 15.6234 6.25789C15.4935 6.23755 15.4815 6.22381 15.5058 6.23675L14.8801 7.4136C15.059 7.50871 15.2524 7.54886 15.4173 7.57468C15.5874 7.60132 15.8015 7.62247 16.0499 7.64731L16.1825 6.3211ZM16.8714 6.44466C16.6569 6.36271 16.4116 6.34401 16.1825 6.3211L16.0499 7.64731C16.1916 7.66148 16.275 7.67 16.3375 7.67924C16.3957 7.68784 16.404 7.69291 16.3956 7.6897L16.8714 6.44466ZM17.8169 7.48948C17.6867 7.01019 17.3353 6.62194 16.8714 6.44466L16.3956 7.6897C16.4619 7.71503 16.5121 7.77049 16.5307 7.83896L17.8169 7.48948ZM17.8713 8.18725C17.8713 7.95696 17.8771 7.71106 17.8169 7.48948L16.5307 7.83896C16.5284 7.83028 16.5326 7.83912 16.5354 7.89789C16.5383 7.96096 16.5385 8.04485 16.5385 8.18725H17.8713ZM17.8713 9.19779V8.18725H16.5385V9.19779H17.8713ZM17.817 9.89535C17.8771 9.67384 17.8713 9.42801 17.8713 9.19779H16.5385C16.5385 9.34015 16.5383 9.42401 16.5354 9.48707C16.5326 9.54581 16.5284 9.55465 16.5307 9.54597L17.817 9.89535ZM16.8713 10.9403C17.3353 10.7631 17.6867 10.3747 17.817 9.89535L16.5307 9.54597C16.5121 9.61446 16.4619 9.66993 16.3956 9.69526L16.8713 10.9403ZM16.1826 11.0638C16.4117 11.0409 16.6568 11.0222 16.8713 10.9403L16.3956 9.69526C16.404 9.69205 16.3957 9.69712 16.3375 9.70572C16.275 9.71495 16.1916 9.72347 16.05 9.73763L16.1826 11.0638ZM15.5061 11.1482C15.4818 11.1611 15.4938 11.1474 15.6237 11.127C15.7484 11.1075 15.9186 11.0902 16.1826 11.0638L16.05 9.73763C15.8016 9.76246 15.5876 9.78361 15.4176 9.81024C15.2527 9.83604 15.0594 9.87618 14.8806 9.97124L15.5061 11.1482ZM15.398 11.4093C15.3668 11.3076 15.4122 11.1981 15.5061 11.1482L14.8806 9.97124C14.2231 10.3207 13.9056 11.0872 14.1234 11.7992L15.398 11.4093ZM15.8167 11.9473C15.6487 11.742 15.5406 11.6094 15.4662 11.5074C15.3887 11.4011 15.3899 11.3829 15.398 11.4093L14.1234 11.7992C14.1827 11.9929 14.291 12.1579 14.3893 12.2928C14.4908 12.4319 14.6271 12.5982 14.7852 12.7913L15.8167 11.9473ZM15.7722 11.8981L15.7722 11.8981L14.8297 12.8405L14.8297 12.8406L15.7722 11.8981ZM16.2165 12.5218C16.1228 12.3122 15.9626 12.1256 15.8167 11.9473L14.7852 12.7913C14.8754 12.9015 14.9283 12.9666 14.966 13.0173C15.0011 13.0645 15.0034 13.074 14.9997 13.0658L16.2165 12.5218ZM16.1463 13.9293C16.3931 13.4983 16.4192 12.9753 16.2165 12.5218L14.9997 13.0658C15.0287 13.1306 15.025 13.2053 14.9897 13.2669L16.1463 13.9293ZM15.6914 14.4611C15.8542 14.2983 16.0322 14.1285 16.1463 13.9293L14.9897 13.2669C14.9942 13.2591 14.9909 13.2683 14.9513 13.3118C14.9088 13.3585 14.8496 13.418 14.7489 13.5187L15.6914 14.4611ZM15.6914 14.4611L15.6914 14.4611L14.7489 13.5187L14.7489 13.5187L15.6914 14.4611ZM14.9769 15.1756L15.6914 14.4611L14.7489 13.5187L14.0345 14.2331L14.9769 15.1756ZM14.4449 15.6306C14.6442 15.5165 14.814 15.3384 14.9769 15.1756L14.0345 14.2331C13.9338 14.3338 13.8743 14.393 13.8276 14.4355C13.7841 14.4751 13.7748 14.4784 13.7826 14.4739L14.4449 15.6306ZM13.0377 15.7008C13.4911 15.9034 14.014 15.8774 14.4449 15.6306L13.7826 14.4739C13.7211 14.5092 13.6464 14.5129 13.5816 14.484L13.0377 15.7008ZM12.4631 15.301C12.6413 15.4468 12.828 15.607 13.0377 15.7008L13.5816 14.484C13.5898 14.4876 13.5803 14.4853 13.5331 14.4502C13.4824 14.4126 13.4173 14.3596 13.3071 14.2694L12.4631 15.301ZM11.9248 14.882C11.8985 14.874 11.9167 14.8728 12.023 14.9503C12.125 15.0247 12.2576 15.1329 12.4631 15.301L13.3071 14.2694C13.1138 14.1113 12.9475 13.9749 12.8083 13.8734C12.6734 13.775 12.5083 13.6667 12.3145 13.6074L11.9248 14.882ZM11.6638 14.9902C11.7137 14.8963 11.8232 14.851 11.9248 14.882L12.3145 13.6074C11.6027 13.3898 10.8364 13.7072 10.487 14.3644L11.6638 14.9902ZM11.5794 15.6671C11.6058 15.4029 11.6231 15.2326 11.6426 15.1078C11.663 14.9779 11.6767 14.9658 11.6638 14.9902L10.487 14.3644C10.3918 14.5433 10.3517 14.7367 10.3258 14.9017C10.2992 15.0718 10.278 15.286 10.2532 15.5344L11.5794 15.6671ZM11.5827 15.6008V15.6007H10.2499V15.6008H11.5827ZM11.4558 16.3563C11.5378 16.1417 11.5565 15.8963 11.5794 15.6671L10.2532 15.5344C10.239 15.6762 10.2305 15.7597 10.2212 15.8222C10.2126 15.8804 10.2076 15.8888 10.2108 15.8804L11.4558 16.3563ZM10.4112 17.3016C10.8903 17.1714 11.2785 16.8201 11.4558 16.3563L10.2108 15.8804C10.1854 15.9467 10.13 15.9969 10.0615 16.0155L10.4112 17.3016ZM9.71311 17.3561C9.9435 17.3561 10.1895 17.3619 10.4112 17.3016L10.0615 16.0155C10.0702 16.0131 10.0614 16.0173 10.0026 16.0201C9.93949 16.0231 9.85557 16.0232 9.71311 16.0232V17.3561ZM8.70286 17.3561H9.71311V16.0232H8.70286V17.3561ZM8.0049 17.3016C8.22653 17.3619 8.4725 17.3561 8.70286 17.3561V16.0232C8.56041 16.0232 8.47651 16.0231 8.41341 16.0201C8.35463 16.0173 8.34579 16.0131 8.35447 16.0155L8.0049 17.3016ZM6.96023 16.3562C7.13751 16.8201 7.52569 17.1714 8.0049 17.3016L8.35447 16.0155C8.28602 15.9969 8.23056 15.9467 8.20524 15.8804L6.96023 16.3562ZM6.83661 15.6671C6.85953 15.8963 6.87824 16.1417 6.96023 16.3562L8.20524 15.8804C8.20845 15.8888 8.20337 15.8804 8.19476 15.8222C8.18552 15.7597 8.177 15.6762 8.16283 15.5345L6.83661 15.6671ZM6.75225 14.9903C6.7393 14.966 6.75305 14.978 6.77339 15.108C6.79292 15.2327 6.8102 15.403 6.83661 15.6671L8.16283 15.5345C8.13798 15.286 8.11682 15.072 8.09019 14.9018C8.06437 14.7369 8.02421 14.5435 7.92909 14.3646L6.75225 14.9903ZM6.49116 14.8822C6.59286 14.8511 6.70233 14.8964 6.75225 14.9903L7.92909 14.3646C7.57963 13.7073 6.81333 13.3899 6.10143 13.6076L6.49116 14.8822ZM5.95303 15.301C6.15842 15.133 6.29102 15.0248 6.39303 14.9504C6.49931 14.8729 6.51753 14.8741 6.49116 14.8822L6.10143 13.6076C5.90768 13.6668 5.74257 13.7752 5.6077 13.8735C5.46857 13.975 5.30223 14.1114 5.10903 14.2695L5.95303 15.301ZM5.37852 15.7008C5.58814 15.607 5.77479 15.4468 5.95303 15.301L5.10903 14.2695C4.99881 14.3596 4.93378 14.4126 4.88308 14.4503C4.83584 14.4853 4.82633 14.4877 4.83454 14.484L5.37852 15.7008ZM3.97114 15.6306C4.40213 15.8774 4.9251 15.9035 5.37852 15.7008L4.83454 14.484C4.76977 14.5129 4.69506 14.5092 4.63349 14.474L3.97114 15.6306ZM3.43925 15.1756C3.6021 15.3385 3.77188 15.5165 3.97114 15.6306L4.63349 14.474C4.64129 14.4784 4.63206 14.4752 4.58855 14.4356C4.54184 14.3931 4.48241 14.3339 4.38171 14.2332L3.43925 15.1756ZM2.72475 14.4611L3.43925 15.1756L4.38171 14.2332L3.66721 13.5187L2.72475 14.4611ZM2.70675 14.4424L2.70677 14.4424L3.6852 13.5374L3.68518 13.5374L2.70675 14.4424ZM2.26985 13.9293C2.38395 14.1285 2.56191 14.2983 2.72474 14.4611L3.66719 13.5187C3.56651 13.418 3.50732 13.3585 3.46483 13.3118C3.42524 13.2683 3.42197 13.2591 3.42644 13.2669L2.26985 13.9293ZM2.19965 12.5219C1.99693 12.9753 2.02301 13.4983 2.26985 13.9293L3.42644 13.2669C3.39118 13.2053 3.38745 13.1306 3.41641 13.0659L2.19965 12.5219ZM2.59937 11.9474C2.45355 12.1256 2.29336 12.3122 2.19965 12.5219L3.41641 13.0659C3.41274 13.0741 3.41508 13.0646 3.45014 13.0173C3.48778 12.9666 3.54076 12.9016 3.63093 12.7914L2.59937 11.9474ZM2.64393 11.8982L2.64392 11.8982L3.58638 12.8406L3.58638 12.8406L2.64393 11.8982ZM3.01819 11.4093C3.02625 11.3829 3.02746 11.4012 2.94996 11.5074C2.87558 11.6094 2.76741 11.742 2.59938 11.9474L3.63093 12.7914C3.78899 12.5982 3.92539 12.4319 4.02685 12.2928C4.12519 12.1579 4.23351 11.9928 4.29276 11.7991L3.01819 11.4093ZM2.91004 11.1482C3.00394 11.1981 3.04929 11.3076 3.01819 11.4093L4.29276 11.7991C4.51046 11.0871 4.19303 10.3208 3.53569 9.97134L2.91004 11.1482ZM2.23339 11.0639C2.49743 11.0903 2.66768 11.1075 2.79241 11.1271C2.92235 11.1474 2.93439 11.1611 2.91004 11.1482L3.53569 9.97134C3.3568 9.87624 3.16346 9.83609 2.99857 9.81027C2.82845 9.78364 2.61439 9.76248 2.36602 9.73764L2.23339 11.0639ZM2.2997 11.0672H2.29971V9.73433H2.2997V11.0672ZM2.22292 11.0627L2.22294 11.0627L2.37645 9.73877L2.37642 9.73877L2.22292 11.0627ZM1.54447 10.9403C1.75896 11.0222 2.00421 11.0409 2.23336 11.0639L2.36598 9.73764C2.22429 9.72347 2.14084 9.71495 2.07837 9.70572C2.02018 9.69711 2.0118 9.69204 2.0202 9.69525L1.54447 10.9403ZM0.59893 9.89547C0.729162 10.3748 1.08052 10.763 1.54447 10.9403L2.0202 9.69525C1.95392 9.66992 1.90373 9.61446 1.88513 9.54599L0.59893 9.89547ZM0.544522 9.1977C0.544522 9.42799 0.538722 9.67389 0.59893 9.89548L1.88513 9.54599C1.88748 9.55467 1.88327 9.54583 1.8805 9.48707C1.87752 9.42399 1.87735 9.3401 1.87735 9.1977L0.544522 9.1977ZM0.544522 8.18735L0.544522 9.1977L1.87735 9.1977L1.87735 8.18735H0.544522ZM0.598963 7.48935C0.538719 7.711 0.544522 7.95698 0.544522 8.18735H1.87735C1.87735 8.04489 1.87752 7.96098 1.8805 7.89788C1.88327 7.83911 1.88749 7.83026 1.88513 7.83894L0.598963 7.48935ZM1.54435 6.44471C1.0805 6.62199 0.729212 7.01016 0.598963 7.48935L1.88513 7.83894C1.90374 7.77049 1.95392 7.71503 2.02019 7.68971L1.54435 6.44471ZM2.23351 6.32108C2.00426 6.34401 1.7589 6.36271 1.54436 6.44471L2.02018 7.68971C2.01178 7.69292 2.02016 7.68785 2.07838 7.67924C2.14088 7.67 2.22437 7.66147 2.36614 7.6473L2.23351 6.32108ZM2.29983 6.31777H2.29982V7.65061H2.29983V6.31777ZM2.91032 6.23672C2.93468 6.22377 2.92264 6.23751 2.79266 6.25786C2.66791 6.27739 2.49761 6.29467 2.23352 6.32108L2.36614 7.6473C2.61457 7.62245 2.82867 7.60129 2.99882 7.57465C3.16374 7.54883 3.35711 7.50868 3.53602 7.41356L2.91032 6.23672ZM3.01847 5.97563C3.04956 6.07733 3.00422 6.1868 2.91032 6.23672L3.53602 7.41356C4.19331 7.06409 4.51071 6.2978 4.29305 5.58592L3.01847 5.97563ZM2.59961 5.43749C2.76766 5.64288 2.87584 5.77549 2.95023 5.8775C3.02774 5.98378 3.02653 6.00201 3.01847 5.97563L4.29305 5.58592C4.23381 5.39216 4.12548 5.22704 4.02712 5.09217C3.92566 4.95304 3.78925 4.7867 3.63117 4.59349L2.59961 5.43749ZM2.61386 5.45433L2.61386 5.45433L3.61692 4.57665L3.61692 4.57665L2.61386 5.45433ZM2.19985 4.86296C2.29356 5.07259 2.45377 5.25924 2.59961 5.43749L3.63116 4.59349C3.54098 4.48327 3.488 4.41823 3.45035 4.36753C3.41529 4.32029 3.41295 4.31078 3.41662 4.31899L2.19985 4.86296ZM2.27004 3.4556C2.02323 3.88659 1.99715 4.40955 2.19985 4.86296L3.41662 4.31899C3.38766 4.25422 3.39139 4.17951 3.42665 4.11794L2.27004 3.4556ZM2.72499 2.9237C2.56214 3.08655 2.38415 3.25634 2.27004 3.4556L3.42665 4.11794C3.42218 4.12575 3.42545 4.11652 3.46504 4.073C3.50755 4.02629 3.56674 3.96686 3.66744 3.86615L2.72499 2.9237ZM3.43951 2.20918L2.72499 2.9237L3.66744 3.86615L4.38197 3.15163L3.43951 2.20918ZM3.97127 1.75433C3.77207 1.86842 3.60232 2.04637 3.43951 2.20918L4.38197 3.15163C4.48264 3.05095 4.54207 2.99177 4.58876 2.94928C4.63227 2.9097 4.6415 2.90642 4.63369 2.91089L3.97127 1.75433ZM5.37882 1.68413C4.92535 1.48137 4.40231 1.50745 3.97127 1.75433L4.63369 2.91089C4.69527 2.87563 4.76999 2.8719 4.83477 2.90087L5.37882 1.68413ZM5.95323 2.08383C5.77501 1.93801 5.58839 1.77783 5.37882 1.68413L4.83477 2.90087C4.82656 2.89719 4.83607 2.89953 4.8833 2.9346C4.934 2.97224 4.99903 3.02522 5.10923 3.11539L5.95323 2.08383ZM6.49118 2.50255C6.51755 2.51062 6.49933 2.51182 6.39309 2.43433C6.29111 2.35996 6.15855 2.25182 5.95323 2.08383L5.10923 3.11538C5.30237 3.27341 5.46864 3.40977 5.60772 3.5112C5.74253 3.60952 5.90758 3.71781 6.10124 3.77707L6.49118 2.50255ZM6.75233 2.39438C6.70241 2.48831 6.5929 2.53367 6.49118 2.50255L6.10124 3.77707C6.81329 3.99492 7.57983 3.6774 7.92928 3.01987L6.75233 2.39438ZM6.83663 1.71799C6.81024 1.98193 6.79297 2.15212 6.77346 2.2768C6.75312 2.40669 6.73939 2.41872 6.75233 2.39438L7.92928 3.01987C8.02432 2.84103 8.06445 2.64776 8.09025 2.48293C8.11687 2.31287 8.13802 2.0989 8.16285 1.85061L6.83663 1.71799ZM6.83333 1.7843V1.7843H8.16616V1.7843H6.83333ZM6.96013 1.02937C6.87823 1.24378 6.85954 1.48893 6.83663 1.71799L8.16285 1.85061C8.17702 1.70897 8.18553 1.62556 8.19476 1.56311C8.20336 1.50494 8.20843 1.49657 8.20522 1.50497L6.96013 1.02937ZM8.00517 0.0836256C7.52575 0.213837 7.1374 0.565287 6.96013 1.02938L8.20522 1.50497C8.23055 1.43867 8.28602 1.38846 8.35451 1.36986L8.00517 0.0836256ZM8.70266 0.029263C8.47246 0.029263 8.22666 0.0234683 8.00517 0.0836256L8.35451 1.36986C8.34584 1.37222 8.35467 1.36801 8.41341 1.36524C8.47646 1.36227 8.56031 1.36209 8.70266 1.36209V0.029263ZM9.71331 0.029263H8.70266V1.36209H9.71331V0.029263ZM10.4109 0.0836402C10.1894 0.0234667 9.94354 0.029263 9.71331 0.029263V1.36209C9.85567 1.36209 9.93953 1.36227 10.0026 1.36524C10.0613 1.36801 10.0702 1.37222 10.0615 1.36986L10.4109 0.0836402ZM11.4559 1.02932C11.2786 0.565278 10.8903 0.213859 10.4109 0.0836404L10.0615 1.36986C10.13 1.38846 10.1855 1.43867 10.2108 1.50496L11.4559 1.02932ZM11.5794 1.71802C11.5565 1.48893 11.5378 1.24375 11.4559 1.02933L10.2108 1.50496C10.2076 1.49656 10.2126 1.50494 10.2212 1.56311C10.2305 1.62556 10.239 1.70899 10.2532 1.85064L11.5794 1.71802ZM11.7403 8.69299C11.7403 10.0916 10.6065 11.2254 9.20788 11.2254V12.5582C11.3426 12.5582 13.0731 10.8277 13.0731 8.69299H11.7403ZM9.20788 6.16062C10.6065 6.16062 11.7403 7.2944 11.7403 8.69299H13.0731C13.0731 6.5583 11.3426 4.82778 9.20788 4.82778V6.16062ZM6.6755 8.69299C6.6755 7.2944 7.80928 6.16062 9.20788 6.16062V4.82778C7.07318 4.82778 5.34267 6.5583 5.34267 8.69299H6.6755ZM9.20788 11.2254C7.80928 11.2254 6.6755 10.0916 6.6755 8.69299H5.34267C5.34267 10.8277 7.07318 12.5582 9.20788 12.5582V11.2254Z" fill="#757575"/>
</svg>
