<svg width="20" height="21" viewBox="0 0 20 21" fill="none" xmlns="http://www.w3.org/2000/svg">
<path opacity="0.4" d="M13.5271 2.36108H16.285C17.4272 2.36108 18.3527 3.29439 18.3527 4.44619V7.22738C18.3527 8.37919 17.4272 9.31249 16.285 9.31249H13.5271C12.385 9.31249 11.4595 8.37919 11.4595 7.22738V4.44619C11.4595 3.29439 12.385 2.36108 13.5271 2.36108Z" fill="#C7B7EB"/>
<path fill-rule="evenodd" clip-rule="evenodd" d="M4.12917 2.36108H6.88707C8.02923 2.36108 8.95472 3.29439 8.95472 4.44619V7.22738C8.95472 8.37919 8.02923 9.31249 6.88707 9.31249H4.12917C2.98701 9.31249 2.06152 8.37919 2.06152 7.22738V4.44619C2.06152 3.29439 2.98701 2.36108 4.12917 2.36108ZM4.12939 11.7003H6.88728C8.02944 11.7003 8.95493 12.6336 8.95493 13.7854V16.5666C8.95493 17.7176 8.02944 18.6517 6.88728 18.6517H4.12939C2.98723 18.6517 2.06174 17.7176 2.06174 16.5666V13.7854C2.06174 12.6336 2.98723 11.7003 4.12939 11.7003ZM16.285 11.7003H13.5271C12.385 11.7003 11.4595 12.6336 11.4595 13.7854V16.5666C11.4595 17.7176 12.385 18.6517 13.5271 18.6517H16.285C17.4272 18.6517 18.3527 17.7176 18.3527 16.5666V13.7854C18.3527 12.6336 17.4272 11.7003 16.285 11.7003Z" fill="#C7B7EB"/>
</svg>
