<svg width="9" height="9" viewBox="0 0 9 9" fill="none" xmlns="http://www.w3.org/2000/svg">
<path fill-rule="evenodd" clip-rule="evenodd" d="M3.44293 0.681641C4.4017 0.681641 5.17893 1.45888 5.17893 2.41765C5.17893 3.37642 4.4017 4.15365 3.44293 4.15365C2.48416 4.15365 1.70692 3.37642 1.70692 2.41765C1.70692 1.45888 2.48416 0.681641 3.44293 0.681641ZM4.48453 2.41765C4.48453 1.84239 4.01819 1.37604 3.44293 1.37604C2.86767 1.37604 2.40132 1.84239 2.40132 2.41765C2.40132 2.99291 2.86767 3.45925 3.44293 3.45925C4.01819 3.45925 4.48453 2.99291 4.48453 2.41765Z" fill="#C7B7EB"/>
<path fill-rule="evenodd" clip-rule="evenodd" d="M4.83173 4.84806C5.7905 4.84806 6.56774 5.62529 6.56774 6.58406C6.56774 7.54283 5.7905 8.32007 4.83173 8.32007H2.05412C1.09535 8.32007 0.318115 7.54283 0.318115 6.58406C0.318115 5.62529 1.09535 4.84806 2.05412 4.84806H4.83173ZM5.87334 6.58406C5.87334 6.0088 5.40699 5.54246 4.83173 5.54246H2.05412C1.47886 5.54246 1.01252 6.0088 1.01252 6.58406C1.01252 7.15932 1.47886 7.62567 2.05412 7.62567H4.83173C5.40699 7.62567 5.87334 7.15932 5.87334 6.58406Z" fill="#C7B7EB"/>
<path d="M5.40941 3.63917C5.48243 3.52187 5.61943 3.45925 5.7576 3.45925C6.33286 3.45925 6.79921 2.99291 6.79921 2.41765C6.79921 1.84239 6.33286 1.37604 5.7576 1.37604C5.61943 1.37604 5.48243 1.31342 5.40941 1.19612C5.40618 1.19093 5.40293 1.18576 5.39966 1.1806C5.27809 0.988709 5.33969 0.717009 5.56548 0.692151C5.62857 0.685206 5.69267 0.681641 5.7576 0.681641C6.71637 0.681641 7.49361 1.45888 7.49361 2.41765C7.49361 3.37642 6.71637 4.15365 5.7576 4.15365C5.69267 4.15365 5.62857 4.15009 5.56548 4.14314C5.33969 4.11829 5.27809 3.84659 5.39966 3.65469C5.40293 3.64953 5.40618 3.64436 5.40941 3.63917Z" fill="#C7B7EB"/>
<path d="M6.81852 7.30942C6.87107 7.22174 6.96383 7.16273 7.06605 7.16273H7.14641C7.72167 7.16273 8.18801 6.69639 8.18801 6.12113C8.18801 5.54587 7.72167 5.07952 7.14641 5.07952H7.06605C6.96383 5.07952 6.87107 5.02051 6.81852 4.93283C6.69024 4.71882 6.82944 4.38512 7.07896 4.38512H7.14641C8.10518 4.38512 8.88241 5.16236 8.88241 6.12113C8.88241 7.0799 8.10518 7.85713 7.14641 7.85713H7.07896C6.82944 7.85713 6.69024 7.52344 6.81852 7.30942Z" fill="#C7B7EB"/>
</svg>
