<svg width="18" height="18" viewBox="0 0 18 18" fill="none" xmlns="http://www.w3.org/2000/svg">
<path d="M17.5844 3.66744C17.5844 1.96077 16.1959 0.572266 14.4892 0.572266C13.7625 0.572266 13.0808 0.824938 12.5278 1.28593C11.4907 0.829822 10.3471 0.572266 9.14326 0.572266C7.93941 0.572266 6.79602 0.8297 5.75868 1.28593C5.20571 0.824908 4.52405 0.572266 3.79729 0.572266C2.09064 0.572266 0.702148 1.96077 0.702148 3.66744C0.702148 4.3942 0.954819 5.0759 1.4158 5.62884C0.959702 6.66604 0.702148 7.8096 0.702148 9.01345C0.702148 13.6682 4.48862 17.4548 9.14341 17.4548C13.7982 17.4548 17.5847 13.6683 17.5847 9.01345C17.5847 7.8096 17.3272 6.66619 16.871 5.62884C17.332 5.07586 17.5847 4.3942 17.5847 3.66744H17.5844ZM14.4892 1.69799C15.5751 1.69799 16.4587 2.58159 16.4587 3.66744C16.4587 3.96178 16.389 4.24346 16.2651 4.50178C15.5971 3.45121 14.7056 2.55958 13.6549 1.89155C13.9132 1.7676 14.1949 1.69796 14.4892 1.69796L14.4892 1.69799ZM1.8279 3.66744C1.8279 2.58159 2.7115 1.69799 3.79733 1.69799C4.09167 1.69799 4.37335 1.76763 4.63167 1.89159C3.58111 2.55958 2.68948 3.45121 2.02146 4.50182C1.89751 4.24349 1.82787 3.96179 1.82787 3.66747L1.8279 3.66744ZM9.14349 16.3289C5.10971 16.3289 1.8279 13.047 1.8279 9.01323C1.8279 4.97941 5.10963 1.69757 9.14349 1.69757C13.1773 1.69757 16.4591 4.97907 16.4591 9.01323C16.4591 13.0467 13.1776 16.3289 9.14349 16.3289Z" fill="black"/>
<path d="M10.2159 8.81946V6.66891C10.2159 6.41 9.97602 6.19995 9.67999 6.19995C9.38409 6.19995 9.14404 6.40989 9.14404 6.66891V9.01364C9.14404 9.13789 9.20045 9.25718 9.3012 9.34521L11.9809 11.6899C12.0856 11.7816 12.2226 11.8275 12.3598 11.8275C12.4968 11.8275 12.634 11.7816 12.7387 11.6899C12.948 11.5068 12.948 11.2099 12.7387 11.0269L10.2159 8.81946Z" fill="black"/>
</svg>
